<svg width="8" height="10" viewBox="0 0 8 10" fill="none" xmlns="http://www.w3.org/2000/svg">
<path fill-rule="evenodd" clip-rule="evenodd" d="M2.26581 0.468386C3.35824 -0.166363 4.70102 -0.155268 5.78319 0.497447C6.85473 1.16346 7.50598 2.35209 7.49992 3.63072C7.47498 4.90097 6.77665 6.095 5.90374 7.01805C5.39992 7.5532 4.83631 8.02641 4.22442 8.42802C4.1614 8.46446 4.09238 8.48885 4.02074 8.5C3.9518 8.49706 3.88466 8.47669 3.82538 8.44072C2.89121 7.83728 2.07167 7.06702 1.40617 6.16698C0.849295 5.41568 0.532918 4.508 0.500001 3.56721C0.499278 2.28612 1.17338 1.10313 2.26581 0.468386ZM2.89708 4.09739C3.08084 4.55042 3.51459 4.84592 3.9958 4.84592C4.31105 4.84819 4.61409 4.72191 4.83741 4.49524C5.06072 4.26856 5.18574 3.96032 5.18462 3.63919C5.18631 3.14902 4.89773 2.70616 4.45363 2.51739C4.00954 2.32862 3.49752 2.43117 3.15666 2.77717C2.8158 3.12317 2.71332 3.64436 2.89708 4.09739Z" fill="#F56C0E"/>
<ellipse opacity="0.4" cx="4" cy="9.5" rx="2.5" ry="0.5" fill="#F56C0E"/>
</svg>
