<?xml version="1.0" standalone="no"?>
<!DOCTYPE svg PUBLIC "-//W3C//DTD SVG 20010904//EN"
 "http://www.w3.org/TR/2001/REC-SVG-20010904/DTD/svg10.dtd">
<svg version="1.0" xmlns="http://www.w3.org/2000/svg"
 width="1024.000000pt" height="1024.000000pt" viewBox="0 0 1024.000000 1024.000000"
 preserveAspectRatio="xMidYMid meet">

<g transform="translate(0.000000,1024.000000) scale(0.100000,-0.100000)"
fill="#000000" stroke="none">
<path d="M4760 8533 c-14 -11 -62 -40 -108 -64 -49 -26 -85 -52 -88 -64 -10
-32 -34 -55 -121 -112 -45 -29 -87 -62 -93 -73 -6 -10 -11 -43 -13 -72 -2 -65
15 -97 75 -134 l41 -26 501 -17 c276 -9 556 -15 624 -14 111 1 129 4 177 28
70 34 106 92 107 171 1 59 13 68 52 39 11 -8 28 -15 38 -15 48 0 -10 -148 -85
-217 -25 -23 -69 -54 -99 -70 l-53 -28 -445 -3 c-245 -2 -455 0 -467 3 -19 4
-23 12 -24 48 -1 41 -1 41 -10 12 -5 -16 -7 -36 -4 -42 10 -28 -244 -4 -358
33 -55 18 -106 59 -137 110 -18 28 -21 45 -17 97 2 34 7 72 12 84 7 21 5 22
-21 14 -16 -5 -45 -16 -65 -25 -20 -8 -47 -17 -61 -20 -97 -17 -485 -243 -686
-398 -190 -148 -442 -389 -614 -589 -111 -129 -186 -220 -233 -283 -27 -37
-68 -90 -91 -119 -80 -103 -362 -524 -414 -619 -8 -15 -78 -132 -154 -260 -76
-128 -162 -273 -191 -323 -114 -196 -164 -282 -190 -330 -15 -27 -41 -70 -56
-95 -24 -39 -100 -173 -173 -305 -131 -235 -206 -367 -324 -570 -128 -219
-318 -608 -365 -745 -36 -109 -62 -218 -54 -226 7 -7 9197 -7 9204 0 7 6 -31
210 -59 316 -70 266 -214 598 -394 907 -30 51 -54 94 -54 97 0 3 -29 50 -65
105 -36 55 -65 104 -65 108 0 8 -264 400 -334 495 -112 154 -174 236 -207 273
-19 22 -46 56 -59 75 -14 19 -30 41 -38 49 -7 7 -39 47 -70 88 -31 41 -68 89
-82 107 -14 18 -86 110 -160 205 -74 95 -157 202 -185 236 -27 35 -81 104
-120 154 -84 110 -272 346 -302 381 -11 14 -53 66 -93 115 -235 295 -567 637
-795 821 -55 43 -237 164 -248 164 -4 0 -47 22 -95 49 -90 51 -208 99 -301
121 -30 7 -66 19 -80 26 -14 8 -45 14 -69 14 -32 0 -44 5 -49 18 -27 78 -171
197 -275 229 -79 23 -245 4 -282 -32 -13 -14 -19 -14 -53 0 -21 8 -56 19 -78
24 -60 14 -158 51 -175 66 -9 8 -54 16 -110 20 -85 6 -98 5 -120 -12z"/>
<path d="M10080 80 l0 -80 80 0 80 0 0 80 0 80 -80 0 -80 0 0 -80z"/>
</g>
</svg>
